<?xml version="1.0" standalone="no"?>
<!DOCTYPE svg PUBLIC "-//W3C//DTD SVG 20010904//EN"
 "http://www.w3.org/TR/2001/REC-SVG-20010904/DTD/svg10.dtd">
<svg version="1.0" xmlns="http://www.w3.org/2000/svg"
 width="266.000000pt" height="266.000000pt" viewBox="0 0 266.000000 266.000000"
 preserveAspectRatio="xMidYMid meet">
<metadata>
Created by potrace 1.14, written by Peter Selinger 2001-2017
</metadata>
<g transform="translate(0.000000,266.000000) scale(0.100000,-0.100000)"
fill="#000000" stroke="none">
<path d="M1103 2333 c-28 -49 -60 -104 -71 -123 -11 -19 -57 -100 -102 -180
-45 -80 -96 -170 -113 -200 -16 -30 -33 -59 -37 -65 -4 -5 -18 -28 -30 -50
-12 -22 -53 -95 -91 -161 -38 -67 -69 -125 -69 -128 0 -4 -5 -12 -10 -19 -11
-12 -436 -756 -517 -905 l-45 -82 106 3 c117 3 112 0 156 85 14 26 27 49 30
52 3 3 13 21 23 40 10 19 28 53 41 75 12 22 71 126 131 230 59 105 153 269
207 365 55 96 112 198 128 225 47 85 76 136 150 265 90 156 100 173 134 235
15 28 31 53 35 57 5 6 387 -617 527 -861 21 -36 176 -293 194 -321 5 -8 37
-62 71 -120 34 -58 69 -115 77 -127 l14 -23 -113 1 c-63 1 -118 0 -124 -1 -5
-1 -14 -2 -20 -1 -14 3 -289 3 -300 1 -6 -2 -14 -2 -20 -1 -14 3 -128 3 -140
1 -5 -1 -14 -2 -20 0 -13 2 -208 2 -220 0 -6 -1 -14 -2 -20 -1 -8 2 -247 2
-350 1 -27 0 -34 -8 -74 -85 -24 -47 -41 -88 -37 -92 6 -7 1766 -12 1766 -6 0
1 -17 29 -37 61 -77 122 -118 188 -142 232 -13 25 -27 47 -30 50 -3 3 -11 14
-16 25 -6 11 -80 136 -165 277 -85 142 -159 265 -165 275 -5 10 -113 190 -240
400 -126 210 -234 390 -240 400 -36 66 -174 283 -180 283 0 0 -24 -39 -52 -87z"/>
<path d="M2345 2024 c-16 -22 -33 -40 -37 -42 -4 -2 -8 -10 -8 -17 0 -7 -3
-15 -7 -17 -16 -6 -403 -528 -403 -542 0 -21 91 -166 101 -160 5 2 74 93 155
202 81 108 187 250 236 315 49 66 92 125 94 132 5 11 -24 63 -59 110 -4 6 -15
21 -25 34 l-18 23 -29 -38z"/>
<path d="M1086 1758 c-29 -51 -44 -88 -40 -97 4 -9 8 -18 8 -21 1 -3 13 -23
27 -45 14 -22 75 -120 135 -218 60 -97 132 -214 160 -260 105 -167 248 -403
258 -424 8 -16 21 -23 41 -24 42 -2 169 2 173 5 5 5 -142 252 -351 591 -115
187 -217 354 -227 370 -9 17 -40 65 -68 107 -29 42 -52 81 -52 87 0 28 -22 4
-64 -71z"/>
<path d="M2507 1748 c-18 -24 -50 -65 -70 -93 -60 -81 -65 -88 -110 -145 -91
-117 -277 -371 -277 -378 0 -4 23 -42 50 -85 57 -89 47 -91 131 19 78 102 89
116 189 254 50 69 100 136 110 150 104 138 128 174 123 184 -31 50 -96 136
-103 136 -5 0 -24 -19 -43 -42z"/>
</g>
</svg>
